PathFileType	4	(X/Y/Z)	E:\Qualisys_Data\Carbon_Farble_Plate\Data\Amateur_Runner\S2\T2\S2T2V11_c3d.trc
DataRate	CameraRate	NumFrames	NumMarkers	Units	OrigDataRate	OrigDataStartFrame	OrigNumFrames
200.000000	200.000000	4	39	mm	200.000000	81	326
Frame#	Time	LSHO			RSHO			LICST			RICST			LASIS			LHEEL			RASIS			LTROC			RTROC			SACR			LTH1			LSK4			LTH2			LTH3			RHM5			LSK2			LTH4			RTH1			LTOE			RTH2			RTH3			RTH4			LLEP			RLEP			LSK1			LSK3			RSK1			LHM5			RSK2			LFT1			RSK3			RSK4			LLME			RLME			RTOE			RHEEL			RFT1			RFT2			LFT2			
		X1	Y1	Z1	X2	Y2	Z2	X3	Y3	Z3	X4	Y4	Z4	X5	Y5	Z5	X6	Y6	Z6	X7	Y7	Z7	X8	Y8	Z8	X9	Y9	Z9	X10	Y10	Z10	X11	Y11	Z11	X12	Y12	Z12	X13	Y13	Z13	X14	Y14	Z14	X15	Y15	Z15	X16	Y16	Z16	X17	Y17	Z17	X18	Y18	Z18	X19	Y19	Z19	X20	Y20	Z20	X21	Y21	Z21	X22	Y22	Z22	X23	Y23	Z23	X24	Y24	Z24	X25	Y25	Z25	X26	Y26	Z26	X27	Y27	Z27	X28	Y28	Z28	X29	Y29	Z29	X30	Y30	Z30	X31	Y31	Z31	X32	Y32	Z32	X33	Y33	Z33	X34	Y34	Z34	X35	Y35	Z35	X36	Y36	Z36	X37	Y37	Z37	X38	Y38	Z38	X39	Y39	Z39	

82	0.405	-1482.543090820312	1521.569213867188	-526.3178100585938	-1395.20361328125	1500.999389648438	-236.1963043212891	-1464.516723632812	1049.559814453125	-517.9592895507812	-1425.456787109375	1039.867919921875	-221.6265106201172	-1403.781616210938	1002.074584960938	-503.700439453125	-1329.521118164062	108.2050933837891	-393.0231018066406	-1371.96875	989.4909057617188	-247.6103363037109	-1522.370483398438	919.7514038085938	-518.871337890625	-1527.9892578125	953.1445922851562	-203.5412902832031	-1539.457641601562	1085.70556640625	-355.7058410644531	-1344.382202148438	713.2265014648438	-535.37939453125	-1358.801147460938	319.0712585449219	-494.0432739257812	-1425.9208984375	689.1701049804688	-529.4263305664062	-1314.605102539062	617.31298828125	-510.1769714355469	-1987.615112304688	226.8112182617188	-228.0782775878906	-1370.195190429688	415.973876953125	-508.6491088867188	-1396.533935546875	595.5484619140625	-501.1199035644531	-1486.334228515625	683.764404296875	-214.5904846191406	-1105.039794921875	198.4352111816406	-455.1275329589844	-1557.950805664062	711.2166137695312	-204.5671081542969	-1521.474975585938	589.9900512695312	-223.7689056396484	-1596.001953125	621.3505249023438	-221.3249664306641	-1341.438232421875	551.7815551757812	-498.0434875488281	-1594.625122070312	569.2286987304688	-218.9063720703125	-1293.029663085938	427.0611267089844	-501.9897766113281	-1279.8935546875	328.2266845703125	-490.3409423828125	-1674.474609375	475.9845886230469	-210.8269195556641	-1154.712524414062	150.2304077148438	-501.1751403808594	-1716.14404296875	543.6117553710938	-207.6615142822266	-1304.961303710938	87.19792938232422	-372.4073486328125	-1759.7802734375	421.2721252441406	-215.1598968505859	-1799.182250976562	489.7066650390625	-217.6483154296875	-1284.070190429688	143.1013488769531	-461.4044189453125	-1941.82080078125	351.7076721191406	-244.5538177490234	-1950.680419921875	157.9790954589844	-278.6427001953125	-1949.13671875	407.0295104980469	-303.05859375	-1970.381469726562	388.0687866210938	-339.6343078613281	-1983.420776367188	403.9036254882812	-286.1882934570312	-1318.764404296875	75.52263641357422	-424.8660888671875
83	0.41	-1466.186889648438	1518.1298828125	-527.4130859375	-1378.663208007812	1498.379272460938	-236.8922576904297	-1448.003295898438	1046.307861328125	-518.194091796875	-1409.074340820312	1037.002807617188	-221.7271728515625	-1387.631591796875	999.6751708984376	-503.6432495117188	-1312.063110351562	105.3813018798828	-390.7584533691406	-1354.815673828125	987.6283569335938	-247.6507415771484	-1506.16064453125	916.8865356445312	-519.029296875	-1510.685668945312	949.9703979492188	-203.6929016113281	-1523.227416992188	1083.0927734375	-355.578369140625	-1328.82373046875	709.6484985351562	-536.1681518554688	-1342.506591796875	315.91796875	-493.3966369628906	-1410.08447265625	685.290283203125	-530.6617431640625	-1299.6337890625	613.9505004882812	-510.4043884277344	-1974.417358398438	232.1522674560547	-227.1402282714844	-1354.138916015625	413.431640625	-508.4845886230469	-1381.101806640625	592.2361450195312	-501.9039306640625	-1467.285034179688	680.7723388671875	-213.9578094482422	-1088.447143554688	197.5299835205078	-453.7864685058594	-1539.682983398438	707.8155517578125	-204.5334167480469	-1501.61279296875	586.103759765625	-222.5991973876953	-1576.3994140625	616.8425903320312	-220.8252563476562	-1325.88232421875	548.5604248046875	-497.334228515625	-1573.737182617188	565.1104125976562	-217.7785339355469	-1276.655029296875	424.3787536621094	-500.8111877441406	-1263.3955078125	325.4512939453125	-489.1514892578125	-1654.518310546875	473.3064880371094	-210.3712005615234	-1137.390625	148.2657012939453	-499.2894287109375	-1694.914916992188	542.3168334960938	-207.2784271240234	-1287.808715820312	84.97451782226562	-370.5591430664062	-1741.907104492188	420.5476379394531	-215.2705841064453	-1779.796264648438	490.2388916015625	-217.994384765625	-1266.949584960938	140.6936950683594	-459.8897399902344	-1925.058349609375	355.7947692871094	-244.6639556884766	-1938.312377929688	162.4526062011719	-277.7648315429688	-1932.177734375	412.0356140136719	-304.0265502929688	-1952.084228515625	392.4450073242188	-339.4211120605469	-1965.577392578125	409.0150756835938	-286.3848571777344	-1300.658569335938	72.56716918945312	-422.1703796386719
84	0.415	-1449.582275390625	1514.825561523438	-527.3970336914062	-1362.8203125	1495.70703125	-237.9602203369141	-1431.077758789062	1043.2265625	-518.1353149414062	-1392.874633789062	1034.935668945312	-221.4626159667969	-1370.822998046875	996.4863891601562	-503.353271484375	-1295.756958007812	102.2811965942383	-389.930908203125	-1338.476318359375	984.733154296875	-247.3294982910156	-1489.371459960938	913.9495849609376	-519.1419067382812	-1493.752197265625	946.1629638671876	-204.0145111083984	-1506.889526367188	1079.459350585938	-356.1209716796875	-1313.532348632812	705.8699951171875	-536.8251342773438	-1325.16357421875	312.8755493164062	-492.0708312988281	-1394.426025390625	681.5530395507812	-531.844482421875	-1283.982177734375	611.0042724609375	-509.3791198730469	-1961.3720703125	238.2508850097656	-227.3608093261719	-1337.317138671875	409.8490295410156	-507.7744750976562	-1365.889770507812	588.6121215820312	-502.6152954101562	-1448.698608398438	677.418212890625	-213.0244598388672	-1072.284545898438	195.5071105957031	-451.9978942871094	-1520.91455078125	703.3926391601562	-203.5371246337891	-1481.84716796875	582.2510375976562	-221.4506225585938	-1556.732055664062	612.5870361328125	-220.8770141601562	-1310.39208984375	545.8134765625	-497.2353820800781	-1553.306762695312	560.7385864257812	-216.6617736816406	-1260.240844726562	421.5230712890625	-499.6324768066406	-1247.083251953125	322.8034362792969	-487.546142578125	-1634.54833984375	470.6480407714844	-209.926513671875	-1121.16015625	145.5574340820312	-497.6512145996094	-1673.832885742188	540.4810180664062	-207.4508056640625	-1270.94677734375	82.37095642089844	-368.3309631347656	-1723.701049804688	420.351318359375	-214.5306854248047	-1759.255126953125	490.4013366699219	-217.7405700683594	-1250.122924804688	137.2216796875	-457.9705200195312	-1908.70361328125	359.8359680175781	-244.6672973632812	-1926.125854492188	167.5698547363281	-276.8486633300781	-1913.056030273438	415.9952697753906	-303.8048095703125	-1934.1865234375	397.5121765136719	-339.8489379882812	-1947.62353515625	414.2656555175781	-287.1198120117188	-1283.956787109375	69.41165161132812	-419.7597961425781
85	0.42	-1433.656982421875	1511.179077148438	-529.4796142578125	-1346.075439453125	1492.75048828125	-238.3824920654297	-1415.666625976562	1040.233276367188	-518.277099609375	-1376.567138671875	1031.476806640625	-221.9724731445312	-1355.195190429688	993.6433715820312	-504.0724487304688	-1280.124633789062	99.15035247802734	-388.0960693359375	-1322.045043945312	982.1383666992188	-247.3460083007812	-1473.01318359375	910.64453125	-519.2440185546875	-1476.46923828125	942.3881225585938	-204.281982421875	-1490.38671875	1076.38037109375	-355.5563354492188	-1296.810913085938	702.34814453125	-536.3541870117188	-1309.352294921875	309.5599060058594	-490.9871215820312	-1377.877807617188	678.3883056640625	-532.271240234375	-1267.674560546875	607.4154663085938	-508.2734375	-1944.902465820312	244.777587890625	-226.2539367675781	-1320.832153320312	406.5559387207031	-506.980224609375	-1349.499755859375	585.0538330078125	-502.470703125	-1429.695434570312	674.005615234375	-212.1111450195312	-1057.011840820312	192.9331817626953	-450.5611267089844	-1502.463623046875	698.4424438476562	-203.3294830322266	-1460.783935546875	578.4095458984375	-219.9714202880859	-1536.524658203125	607.19873046875	-219.8514862060547	-1293.290893554688	542.5824584960938	-495.9391479492188	-1532.06591796875	556.0513916015625	-216.0855560302734	-1244.378295898438	417.9346008300781	-498.5361022949219	-1231.04248046875	319.45751953125	-486.2012023925781	-1614.753784179688	467.3846435546875	-209.2027893066406	-1105.490478515625	142.6427764892578	-495.3050842285156	-1652.149291992188	538.1734619140625	-207.1697235107422	-1255.283935546875	79.61381530761719	-366.2946166992188	-1704.395385742188	419.7644653320312	-214.7294158935547	-1738.503784179688	490.6334228515625	-217.6358337402344	-1235.1396484375	134.0061187744141	-456.4755554199219	-1891.455322265625	363.9098510742188	-245.11767578125	-1913.78125	171.8764495849609	-275.8820495605469	-1894.276123046875	420.4066162109375	-304.833251953125	-1915.940307617188	401.5874633789062	-339.6094970703125	-1928.255493164062	419.2375793457031	-287.0245971679688	-1268.463134765625	66.4247055053711	-418.2993774414062
